<svg xmlns="http://www.w3.org/2000/svg" version="1.1" xmlns:xlink="http://www.w3.org/1999/xlink" xmlns:svgjs="http://svgjs.dev/svgjs" width="1440" height="560" preserveAspectRatio="none" viewBox="0 0 1440 560"><g mask="url(&quot;#SvgjsMask1023&quot;)" fill="none"><rect width="1440" height="560" x="0" y="0" fill="rgba(255, 255, 255, 1)"></rect><path d="M1464 560L0 560 L0 309.31Q63.35 300.66, 72 364.01Q115.34 335.35, 144 378.68Q209.16 323.84, 264 388.99Q275.54 328.53, 336 340.07Q377.55 309.62, 408 351.16Q432.73 303.89, 480 328.63Q565.44 294.07, 600 379.51Q641.21 348.72, 672 389.93Q684.96 330.89, 744 343.85Q787.74 315.59, 816 359.32Q889.33 312.64, 936 385.97Q982.36 360.33, 1008 406.69Q1023.62 350.31, 1080 365.92Q1108.06 273.98, 1200 302.03Q1249.42 279.45, 1272 328.88Q1362.66 299.54, 1392 390.2Q1433.71 359.91, 1464 401.62z" fill="rgba(92, 36, 0, 1)"></path><path d="M1464 560L0 560 L0 479.87Q33.98 441.85, 72 475.82Q109.76 393.58, 192 431.34Q281.83 401.17, 312 491Q342.91 449.91, 384 480.82Q375.95 400.77, 456 392.72Q507.67 324.39, 576 376.07Q659.35 339.41, 696 422.76Q759.67 414.44, 768 478.11Q814.14 404.25, 888 450.39Q908.75 399.14, 960 419.9Q977.13 365.03, 1032 382.16Q1104.62 334.77, 1152 407.39Q1200.94 384.33, 1224 433.28Q1316.31 405.59, 1344 497.9Q1365.4 399.3, 1464 420.7z" fill="rgba(226, 44, 2, 1)"></path><path d="M1512 560L0 560 L0 518.02Q78.2 476.22, 120 554.43Q128.2 490.63, 192 498.83Q239.7 426.53, 312 474.24Q407.49 449.73, 432 545.22Q450.47 491.69, 504 510.16Q519.18 453.35, 576 468.53Q649.95 422.48, 696 496.43Q777.96 506.39, 768 588.35Q767.94 468.29, 888 468.22Q947.34 407.56, 1008 466.9Q1064.09 450.99, 1080 507.08Q1173.41 480.49, 1200 573.9Q1271.35 525.25, 1320 596.6Q1322.6 527.19, 1392 529.79Q1445.57 463.36, 1512 516.92z" fill="rgba(226, 190, 137, 1)"></path></g><defs><mask id="SvgjsMask1023"><rect width="1440" height="560" fill="#ffffff"></rect></mask></defs></svg>